<svg width="4100" height="1100" xmlns="http://www.w3.org/2000/svg">
<rect x="0" y="0" width="4100" height="1100" fill="white" />
<g transform="translate(50,50)">
  <rect x="0" y="0" width="2050" height="40" style="fill: lightgray; stroke: black; stroke-width: 1px;" />
  <text x="5" y="20" font-family="Verdana" font-size="12" fill="black">m2-m_chop(lettuce1)</text>
</g>
<g transform="translate(1100,100)">
  <rect x="0" y="0" width="1000" height="40" style="fill: lightgreen; stroke: black; stroke-width: 1px;" />
  <text x="5" y="20" font-family="Verdana" font-size="12" fill="black">a_chop(cook1, lettuce1, knife2)</text>
</g>
<g transform="translate(50,100)">
  <rect x="0" y="0" width="1050" height="40" style="fill: lightgray; stroke: black; stroke-width: 1px;" />
  <text x="5" y="20" font-family="Verdana" font-size="12" fill="black">m2-m_transport_to(lettuce1, counterTopRightTop)</text>
</g>
<g transform="translate(850,150)">
  <rect x="0" y="0" width="250" height="40" style="fill: lightgreen; stroke: black; stroke-width: 1px;" />
  <text x="5" y="20" font-family="Verdana" font-size="12" fill="black">a_drop(cook1, lettuce1)</text>
</g>
<g transform="translate(50,150)">
  <rect x="0" y="0" width="500" height="40" style="fill: lightgray; stroke: black; stroke-width: 1px;" />
  <text x="5" y="20" font-family="Verdana" font-size="12" fill="black">m2-m_fetch(cook1, lettuce1)</text>
</g>
<g transform="translate(300,200)">
  <rect x="0" y="0" width="250" height="40" style="fill: lightgreen; stroke: black; stroke-width: 1px;" />
  <text x="5" y="20" font-family="Verdana" font-size="12" fill="black">a_pick_up(cook1, lettuce1)</text>
</g>
<g transform="translate(50,200)">
  <rect x="0" y="0" width="250" height="40" style="fill: lightgray; stroke: black; stroke-width: 1px;" />
  <text x="5" y="20" font-family="Verdana" font-size="12" fill="black">m2-m_get_to(cook1, manLettuceDispenser)</text>
</g>
<g transform="translate(50,250)">
  <rect x="0" y="0" width="250" height="40" style="fill: lightgreen; stroke: black; stroke-width: 1px;" />
  <text x="5" y="20" font-family="Verdana" font-size="12" fill="black">a_move(cook1, manLettuceDispenser)</text>
</g>
<g transform="translate(550,150)">
  <rect x="0" y="0" width="300" height="40" style="fill: lightgray; stroke: black; stroke-width: 1px;" />
  <text x="5" y="20" font-family="Verdana" font-size="12" fill="black">m2-m_get_to(cook1, manCounterTopRightTop)</text>
</g>
<g transform="translate(600,200)">
  <rect x="0" y="0" width="250" height="40" style="fill: lightgreen; stroke: black; stroke-width: 1px;" />
  <text x="5" y="20" font-family="Verdana" font-size="12" fill="black">a_move(cook1, manCounterTopRightTop)</text>
</g>
<g transform="translate(100,300)">
  <rect x="0" y="0" width="4000" height="40" style="fill: lightgray; stroke: black; stroke-width: 1px;" />
  <text x="5" y="20" font-family="Verdana" font-size="12" fill="black">m2-m_chop(lettuce2)</text>
</g>
<g transform="translate(3100,350)">
  <rect x="0" y="0" width="1000" height="40" style="fill: lightgreen; stroke: black; stroke-width: 1px;" />
  <text x="5" y="20" font-family="Verdana" font-size="12" fill="black">a_chop(cook1, lettuce2, knife2)</text>
</g>
<g transform="translate(100,350)">
  <rect x="0" y="0" width="3000" height="40" style="fill: lightgray; stroke: black; stroke-width: 1px;" />
  <text x="5" y="20" font-family="Verdana" font-size="12" fill="black">m2-m_transport_to(lettuce2, counterTopRightTop)</text>
</g>
<g transform="translate(2850,400)">
  <rect x="0" y="0" width="250" height="40" style="fill: lightgreen; stroke: black; stroke-width: 1px;" />
  <text x="5" y="20" font-family="Verdana" font-size="12" fill="black">a_drop(cook1, lettuce2)</text>
</g>
<g transform="translate(100,400)">
  <rect x="0" y="0" width="2500" height="40" style="fill: lightgray; stroke: black; stroke-width: 1px;" />
  <text x="5" y="20" font-family="Verdana" font-size="12" fill="black">m2-m_fetch(cook1, lettuce2)</text>
</g>
<g transform="translate(2350,450)">
  <rect x="0" y="0" width="250" height="40" style="fill: lightgreen; stroke: black; stroke-width: 1px;" />
  <text x="5" y="20" font-family="Verdana" font-size="12" fill="black">a_pick_up(cook1, lettuce2)</text>
</g>
<g transform="translate(100,450)">
  <rect x="0" y="0" width="2250" height="40" style="fill: lightgray; stroke: black; stroke-width: 1px;" />
  <text x="5" y="20" font-family="Verdana" font-size="12" fill="black">m2-m_get_to(cook1, manLettuceDispenser)</text>
</g>
<g transform="translate(2100,500)">
  <rect x="0" y="0" width="250" height="40" style="fill: lightgreen; stroke: black; stroke-width: 1px;" />
  <text x="5" y="20" font-family="Verdana" font-size="12" fill="black">a_move(cook1, manLettuceDispenser)</text>
</g>
<g transform="translate(2600,400)">
  <rect x="0" y="0" width="250" height="40" style="fill: lightgray; stroke: black; stroke-width: 1px;" />
  <text x="5" y="20" font-family="Verdana" font-size="12" fill="black">m2-m_get_to(cook1, manCounterTopRightTop)</text>
</g>
<g transform="translate(2600,450)">
  <rect x="0" y="0" width="250" height="40" style="fill: lightgreen; stroke: black; stroke-width: 1px;" />
  <text x="5" y="20" font-family="Verdana" font-size="12" fill="black">a_move(cook1, manCounterTopRightTop)</text>
</g>
<g transform="translate(550,200)">
  <rect x="0" y="0" width="50" height="40" style="fill: lightgray; stroke: black; stroke-width: 1px;" />
  <text x="5" y="20" font-family="Verdana" font-size="12" fill="black">m1-m_chop(lettuce2)</text>
</g>
</svg>
