<svg width="8100" height="2650" xmlns="http://www.w3.org/2000/svg">
<rect x="0" y="0" width="8100" height="2650" fill="white" />
<g transform="translate(50,50)">
  <rect x="0" y="0" width="8050" height="40" style="fill: lightgray; stroke: black; stroke-width: 1px;" />
  <text x="5" y="20" font-family="Verdana" font-size="12" fill="black">m1-order_po_lettuce_tomato_salad(client1)</text>
</g>
<g transform="translate(2250,100)">
  <rect x="0" y="0" width="3800" height="40" style="fill: lightgray; stroke: black; stroke-width: 1px;" />
  <text x="5" y="20" font-family="Verdana" font-size="12" fill="black">m1-m_arrange(tomato1, plate4)</text>
</g>
<g transform="translate(5150,150)">
  <rect x="0" y="0" width="1500" height="40" style="fill: lightgray; stroke: black; stroke-width: 1px;" />
  <text x="5" y="20" font-family="Verdana" font-size="12" fill="black">m1-m_arrange(lettuce1, plate4)</text>
</g>
<g transform="translate(50,100)">
  <rect x="0" y="0" width="1100" height="40" style="fill: lightgray; stroke: black; stroke-width: 1px;" />
  <text x="5" y="20" font-family="Verdana" font-size="12" fill="black">m2-m_prepare_tableware(plate4)</text>
</g>
<g transform="translate(50,150)">
  <rect x="0" y="0" width="1100" height="40" style="fill: lightgray; stroke: black; stroke-width: 1px;" />
  <text x="5" y="20" font-family="Verdana" font-size="12" fill="black">m2-m_transport_to(plate4, counterMiddle2)</text>
</g>
<g transform="translate(950,200)">
  <rect x="0" y="0" width="200" height="40" style="fill: lightgreen; stroke: black; stroke-width: 1px;" />
  <text x="5" y="20" font-family="Verdana" font-size="12" fill="black">a_drop(cook1, plate4)</text>
</g>
<g transform="translate(50,200)">
  <rect x="0" y="0" width="400" height="40" style="fill: lightgray; stroke: black; stroke-width: 1px;" />
  <text x="5" y="20" font-family="Verdana" font-size="12" fill="black">m2-m_fetch(cook1, plate4)</text>
</g>
<g transform="translate(150,250)">
  <rect x="0" y="0" width="300" height="40" style="fill: lightgreen; stroke: black; stroke-width: 1px;" />
  <text x="5" y="20" font-family="Verdana" font-size="12" fill="black">a_pick_up(cook1, plate4)</text>
</g>
<g transform="translate(6150,200)">
  <rect x="0" y="0" width="500" height="40" style="fill: lightgreen; stroke: black; stroke-width: 1px;" />
  <text x="5" y="20" font-family="Verdana" font-size="12" fill="black">a_arrange(cook1, lettuce1, plate4)</text>
</g>
<g transform="translate(5550,200)">
  <rect x="0" y="0" width="500" height="40" style="fill: lightgreen; stroke: black; stroke-width: 1px;" />
  <text x="5" y="20" font-family="Verdana" font-size="12" fill="black">a_arrange(cook2, tomato1, plate4)</text>
</g>
<g transform="translate(6650,100)">
  <rect x="0" y="0" width="1450" height="40" style="fill: lightgray; stroke: black; stroke-width: 1px;" />
  <text x="5" y="20" font-family="Verdana" font-size="12" fill="black">m1-m_deliver(plate4, client1)</text>
</g>
<g transform="translate(7850,150)">
  <rect x="0" y="0" width="250" height="40" style="fill: lightgreen; stroke: black; stroke-width: 1px;" />
  <text x="5" y="20" font-family="Verdana" font-size="12" fill="black">a_give(cook1, client1, plate4)</text>
</g>
<g transform="translate(6650,150)">
  <rect x="0" y="0" width="800" height="40" style="fill: lightgray; stroke: black; stroke-width: 1px;" />
  <text x="5" y="20" font-family="Verdana" font-size="12" fill="black">m2-m_fetch(cook1, plate4)</text>
</g>
<g transform="translate(7150,200)">
  <rect x="0" y="0" width="300" height="40" style="fill: lightgreen; stroke: black; stroke-width: 1px;" />
  <text x="5" y="20" font-family="Verdana" font-size="12" fill="black">a_pick_up(cook1, plate4)</text>
</g>
<g transform="translate(50,250)">
  <rect x="0" y="0" width="100" height="40" style="fill: lightgray; stroke: black; stroke-width: 1px;" />
  <text x="5" y="20" font-family="Verdana" font-size="12" fill="black">m2-m_get_to(cook1, manPlateDispenser)</text>
</g>
<g transform="translate(50,300)">
  <rect x="0" y="0" width="100" height="40" style="fill: lightgreen; stroke: black; stroke-width: 1px;" />
  <text x="5" y="20" font-family="Verdana" font-size="12" fill="black">a_move(cook1, manPlateDispenser)</text>
</g>
<g transform="translate(50,350)">
  <rect x="0" y="0" width="2200" height="40" style="fill: lightgray; stroke: black; stroke-width: 1px;" />
  <text x="5" y="20" font-family="Verdana" font-size="12" fill="black">m2-m_chop(tomato1)</text>
</g>
<g transform="translate(1700,400)">
  <rect x="0" y="0" width="550" height="40" style="fill: lightgreen; stroke: black; stroke-width: 1px;" />
  <text x="5" y="20" font-family="Verdana" font-size="12" fill="black">a_chop(cook2, tomato1, knife3)</text>
</g>
<g transform="translate(50,400)">
  <rect x="0" y="0" width="1650" height="40" style="fill: lightgray; stroke: black; stroke-width: 1px;" />
  <text x="5" y="20" font-family="Verdana" font-size="12" fill="black">m2-m_transport_to(tomato1, taKnife3)</text>
</g>
<g transform="translate(1500,450)">
  <rect x="0" y="0" width="200" height="40" style="fill: lightgreen; stroke: black; stroke-width: 1px;" />
  <text x="5" y="20" font-family="Verdana" font-size="12" fill="black">a_drop(cook2, tomato1)</text>
</g>
<g transform="translate(50,450)">
  <rect x="0" y="0" width="800" height="40" style="fill: lightgray; stroke: black; stroke-width: 1px;" />
  <text x="5" y="20" font-family="Verdana" font-size="12" fill="black">m2-m_fetch(cook2, tomato1)</text>
</g>
<g transform="translate(550,500)">
  <rect x="0" y="0" width="300" height="40" style="fill: lightgreen; stroke: black; stroke-width: 1px;" />
  <text x="5" y="20" font-family="Verdana" font-size="12" fill="black">a_pick_up(cook2, tomato1)</text>
</g>
<g transform="translate(2250,150)">
  <rect x="0" y="0" width="350" height="40" style="fill: lightgray; stroke: black; stroke-width: 1px;" />
  <text x="5" y="20" font-family="Verdana" font-size="12" fill="black">m2-m_fetch(cook2, tomato1)</text>
</g>
<g transform="translate(2300,200)">
  <rect x="0" y="0" width="300" height="40" style="fill: lightgreen; stroke: black; stroke-width: 1px;" />
  <text x="5" y="20" font-family="Verdana" font-size="12" fill="black">a_pick_up(cook2, tomato1)</text>
</g>
<g transform="translate(50,550)">
  <rect x="0" y="0" width="5100" height="40" style="fill: lightgray; stroke: black; stroke-width: 1px;" />
  <text x="5" y="20" font-family="Verdana" font-size="12" fill="black">m2-m_chop(lettuce1)</text>
</g>
<g transform="translate(4600,600)">
  <rect x="0" y="0" width="550" height="40" style="fill: lightgreen; stroke: black; stroke-width: 1px;" />
  <text x="5" y="20" font-family="Verdana" font-size="12" fill="black">a_chop(cook1, lettuce1, knife4)</text>
</g>
<g transform="translate(50,600)">
  <rect x="0" y="0" width="4550" height="40" style="fill: lightgray; stroke: black; stroke-width: 1px;" />
  <text x="5" y="20" font-family="Verdana" font-size="12" fill="black">m2-m_transport_to(lettuce1, taKnife4)</text>
</g>
<g transform="translate(4400,650)">
  <rect x="0" y="0" width="200" height="40" style="fill: lightgreen; stroke: black; stroke-width: 1px;" />
  <text x="5" y="20" font-family="Verdana" font-size="12" fill="black">a_drop(cook1, lettuce1)</text>
</g>
<g transform="translate(50,650)">
  <rect x="0" y="0" width="3550" height="40" style="fill: lightgray; stroke: black; stroke-width: 1px;" />
  <text x="5" y="20" font-family="Verdana" font-size="12" fill="black">m2-m_fetch(cook1, lettuce1)</text>
</g>
<g transform="translate(3300,700)">
  <rect x="0" y="0" width="300" height="40" style="fill: lightgreen; stroke: black; stroke-width: 1px;" />
  <text x="5" y="20" font-family="Verdana" font-size="12" fill="black">a_pick_up(cook1, lettuce1)</text>
</g>
<g transform="translate(5150,200)">
  <rect x="0" y="0" width="350" height="40" style="fill: lightgray; stroke: black; stroke-width: 1px;" />
  <text x="5" y="20" font-family="Verdana" font-size="12" fill="black">m2-m_fetch(cook1, lettuce1)</text>
</g>
<g transform="translate(5200,250)">
  <rect x="0" y="0" width="300" height="40" style="fill: lightgreen; stroke: black; stroke-width: 1px;" />
  <text x="5" y="20" font-family="Verdana" font-size="12" fill="black">a_pick_up(cook1, lettuce1)</text>
</g>
<g transform="translate(7450,150)">
  <rect x="0" y="0" width="400" height="40" style="fill: lightgray; stroke: black; stroke-width: 1px;" />
  <text x="5" y="20" font-family="Verdana" font-size="12" fill="black">m2-m_get_to(cook1, manDeliver)</text>
</g>
<g transform="translate(7450,200)">
  <rect x="0" y="0" width="400" height="40" style="fill: lightgreen; stroke: black; stroke-width: 1px;" />
  <text x="5" y="20" font-family="Verdana" font-size="12" fill="black">a_move(cook1, manDeliver)</text>
</g>
<g transform="translate(50,500)">
  <rect x="0" y="0" width="500" height="40" style="fill: lightgray; stroke: black; stroke-width: 1px;" />
  <text x="5" y="20" font-family="Verdana" font-size="12" fill="black">m2-m_get_to(cook2, manTomatoDispenser)</text>
</g>
<g transform="translate(50,700)">
  <rect x="0" y="0" width="500" height="40" style="fill: lightgreen; stroke: black; stroke-width: 1px;" />
  <text x="5" y="20" font-family="Verdana" font-size="12" fill="black">a_move(cook2, manTomatoDispenser)</text>
</g>
<g transform="translate(50,750)">
  <rect x="0" y="0" width="3250" height="40" style="fill: lightgray; stroke: black; stroke-width: 1px;" />
  <text x="5" y="20" font-family="Verdana" font-size="12" fill="black">m2-m_get_to(cook1, manLettuceDispenser)</text>
</g>
<g transform="translate(2650,800)">
  <rect x="0" y="0" width="650" height="40" style="fill: lightgreen; stroke: black; stroke-width: 1px;" />
  <text x="5" y="20" font-family="Verdana" font-size="12" fill="black">a_move(cook1, manLettuceDispenser)</text>
</g>
<g transform="translate(450,200)">
  <rect x="0" y="0" width="500" height="40" style="fill: lightgray; stroke: black; stroke-width: 1px;" />
  <text x="5" y="20" font-family="Verdana" font-size="12" fill="black">m2-m_get_to(cook1, manCounterMiddle2Top)</text>
</g>
<g transform="translate(450,250)">
  <rect x="0" y="0" width="500" height="40" style="fill: lightgreen; stroke: black; stroke-width: 1px;" />
  <text x="5" y="20" font-family="Verdana" font-size="12" fill="black">a_move(cook1, manCounterMiddle2Top)</text>
</g>
<g transform="translate(850,450)">
  <rect x="0" y="0" width="650" height="40" style="fill: lightgray; stroke: black; stroke-width: 1px;" />
  <text x="5" y="20" font-family="Verdana" font-size="12" fill="black">m2-m_get_to(cook2, manKnife3)</text>
</g>
<g transform="translate(850,500)">
  <rect x="0" y="0" width="650" height="40" style="fill: lightgreen; stroke: black; stroke-width: 1px;" />
  <text x="5" y="20" font-family="Verdana" font-size="12" fill="black">a_move(cook2, manKnife3)</text>
</g>
<g transform="translate(2600,150)">
  <rect x="0" y="0" width="50" height="40" style="fill: lightgray; stroke: black; stroke-width: 1px;" />
  <text x="5" y="20" font-family="Verdana" font-size="12" fill="black">m2-m_get_to(cook2, manCounterMiddle2Top)</text>
</g>
<g transform="translate(2600,200)">
  <rect x="0" y="0" width="50" height="40" style="fill: lightgreen; stroke: black; stroke-width: 1px;" />
  <text x="5" y="20" font-family="Verdana" font-size="12" fill="black">a_move(cook2, manCounterMiddle2Top)</text>
</g>
<g transform="translate(2250,200)">
  <rect x="0" y="0" width="50" height="40" style="fill: lightgray; stroke: black; stroke-width: 1px;" />
  <text x="5" y="20" font-family="Verdana" font-size="12" fill="black">m1-m_get_to(cook2, manKnife3)</text>
</g>
<g transform="translate(3600,650)">
  <rect x="0" y="0" width="800" height="40" style="fill: lightgray; stroke: black; stroke-width: 1px;" />
  <text x="5" y="20" font-family="Verdana" font-size="12" fill="black">m2-m_get_to(cook1, manKnife4)</text>
</g>
<g transform="translate(3600,700)">
  <rect x="0" y="0" width="800" height="40" style="fill: lightgreen; stroke: black; stroke-width: 1px;" />
  <text x="5" y="20" font-family="Verdana" font-size="12" fill="black">a_move(cook1, manKnife4)</text>
</g>
<g transform="translate(5500,250)">
  <rect x="0" y="0" width="650" height="40" style="fill: lightgray; stroke: black; stroke-width: 1px;" />
  <text x="5" y="20" font-family="Verdana" font-size="12" fill="black">m2-m_get_to(cook1, manCounterMiddle2Bottom)</text>
</g>
<g transform="translate(5500,300)">
  <rect x="0" y="0" width="650" height="40" style="fill: lightgreen; stroke: black; stroke-width: 1px;" />
  <text x="5" y="20" font-family="Verdana" font-size="12" fill="black">a_move(cook1, manCounterMiddle2Bottom)</text>
</g>
<g transform="translate(5150,250)">
  <rect x="0" y="0" width="50" height="40" style="fill: lightgray; stroke: black; stroke-width: 1px;" />
  <text x="5" y="20" font-family="Verdana" font-size="12" fill="black">m1-m_get_to(cook1, manKnife4)</text>
</g>
<g transform="translate(6650,200)">
  <rect x="0" y="0" width="500" height="40" style="fill: lightgray; stroke: black; stroke-width: 1px;" />
  <text x="5" y="20" font-family="Verdana" font-size="12" fill="black">m2-m_get_to(cook1, manCounterMiddle2Top)</text>
</g>
<g transform="translate(6650,250)">
  <rect x="0" y="0" width="500" height="40" style="fill: lightgreen; stroke: black; stroke-width: 1px;" />
  <text x="5" y="20" font-family="Verdana" font-size="12" fill="black">a_move(cook1, manCounterMiddle2Top)</text>
</g>
</svg>
