<svg width="7050" height="2750" xmlns="http://www.w3.org/2000/svg">
<rect x="0" y="0" width="7050" height="2750" fill="white" />
<g transform="translate(50,50)">
  <rect x="0" y="0" width="7000" height="40" style="fill: lightgray; stroke: black; stroke-width: 1px;" />
  <text x="5" y="20" font-family="Verdana" font-size="12" fill="black">m1-order_lettuce_tomato_salad(client1)</text>
</g>
<g transform="translate(4300,100)">
  <rect x="0" y="0" width="1250" height="40" style="fill: lightgray; stroke: black; stroke-width: 1px;" />
  <text x="5" y="20" font-family="Verdana" font-size="12" fill="black">m1-m_arrange(tomato5, plate4)</text>
</g>
<g transform="translate(4300,150)">
  <rect x="0" y="0" width="1750" height="40" style="fill: lightgray; stroke: black; stroke-width: 1px;" />
  <text x="5" y="20" font-family="Verdana" font-size="12" fill="black">m1-m_arrange(lettuce3, plate4)</text>
</g>
<g transform="translate(5550,200)">
  <rect x="0" y="0" width="500" height="40" style="fill: lightgreen; stroke: black; stroke-width: 1px;" />
  <text x="5" y="20" font-family="Verdana" font-size="12" fill="black">a_arrange(cook2, lettuce3, plate4)</text>
</g>
<g transform="translate(5050,200)">
  <rect x="0" y="0" width="500" height="40" style="fill: lightgreen; stroke: black; stroke-width: 1px;" />
  <text x="5" y="20" font-family="Verdana" font-size="12" fill="black">a_arrange(cook1, tomato5, plate4)</text>
</g>
<g transform="translate(6050,100)">
  <rect x="0" y="0" width="1000" height="40" style="fill: lightgray; stroke: black; stroke-width: 1px;" />
  <text x="5" y="20" font-family="Verdana" font-size="12" fill="black">m1-m_deliver(plate4, client1)</text>
</g>
<g transform="translate(6800,150)">
  <rect x="0" y="0" width="250" height="40" style="fill: lightgreen; stroke: black; stroke-width: 1px;" />
  <text x="5" y="20" font-family="Verdana" font-size="12" fill="black">a_give(cook1, client1, plate4)</text>
</g>
<g transform="translate(50,100)">
  <rect x="0" y="0" width="4250" height="40" style="fill: lightgray; stroke: black; stroke-width: 1px;" />
  <text x="5" y="20" font-family="Verdana" font-size="12" fill="black">m2-m_prepare_tableware(plate4)</text>
</g>
<g transform="translate(50,150)">
  <rect x="0" y="0" width="4250" height="40" style="fill: lightgray; stroke: black; stroke-width: 1px;" />
  <text x="5" y="20" font-family="Verdana" font-size="12" fill="black">m2-m_transport_to(plate4, counterTopRightBottom)</text>
</g>
<g transform="translate(4050,200)">
  <rect x="0" y="0" width="250" height="40" style="fill: lightgreen; stroke: black; stroke-width: 1px;" />
  <text x="5" y="20" font-family="Verdana" font-size="12" fill="black">a_drop(cook2, plate4)</text>
</g>
<g transform="translate(50,200)">
  <rect x="0" y="0" width="3750" height="40" style="fill: lightgray; stroke: black; stroke-width: 1px;" />
  <text x="5" y="20" font-family="Verdana" font-size="12" fill="black">m2-m_fetch(cook2, plate4)</text>
</g>
<g transform="translate(3550,250)">
  <rect x="0" y="0" width="250" height="40" style="fill: lightgreen; stroke: black; stroke-width: 1px;" />
  <text x="5" y="20" font-family="Verdana" font-size="12" fill="black">a_pick_up(cook2, plate4)</text>
</g>
<g transform="translate(50,250)">
  <rect x="0" y="0" width="3500" height="40" style="fill: lightgray; stroke: black; stroke-width: 1px;" />
  <text x="5" y="20" font-family="Verdana" font-size="12" fill="black">m2-m_get_to(cook2, manPlateDispenser)</text>
</g>
<g transform="translate(3300,300)">
  <rect x="0" y="0" width="250" height="40" style="fill: lightgreen; stroke: black; stroke-width: 1px;" />
  <text x="5" y="20" font-family="Verdana" font-size="12" fill="black">a_move(cook2, manPlateDispenser)</text>
</g>
<g transform="translate(50,300)">
  <rect x="0" y="0" width="3250" height="40" style="fill: lightgray; stroke: black; stroke-width: 1px;" />
  <text x="5" y="20" font-family="Verdana" font-size="12" fill="black">m2-m_chop(tomato5)</text>
</g>
<g transform="translate(2300,350)">
  <rect x="0" y="0" width="1000" height="40" style="fill: lightgreen; stroke: black; stroke-width: 1px;" />
  <text x="5" y="20" font-family="Verdana" font-size="12" fill="black">a_chop(cook2, tomato5, knife1)</text>
</g>
<g transform="translate(50,350)">
  <rect x="0" y="0" width="2250" height="40" style="fill: lightgray; stroke: black; stroke-width: 1px;" />
  <text x="5" y="20" font-family="Verdana" font-size="12" fill="black">m2-m_transport_to(tomato5, counterTopLeftTop)</text>
</g>
<g transform="translate(2050,400)">
  <rect x="0" y="0" width="250" height="40" style="fill: lightgreen; stroke: black; stroke-width: 1px;" />
  <text x="5" y="20" font-family="Verdana" font-size="12" fill="black">a_drop(cook1, tomato5)</text>
</g>
<g transform="translate(50,400)">
  <rect x="0" y="0" width="500" height="40" style="fill: lightgray; stroke: black; stroke-width: 1px;" />
  <text x="5" y="20" font-family="Verdana" font-size="12" fill="black">m2-m_fetch(cook1, tomato5)</text>
</g>
<g transform="translate(300,450)">
  <rect x="0" y="0" width="250" height="40" style="fill: lightgreen; stroke: black; stroke-width: 1px;" />
  <text x="5" y="20" font-family="Verdana" font-size="12" fill="black">a_pick_up(cook1, tomato5)</text>
</g>
<g transform="translate(50,450)">
  <rect x="0" y="0" width="250" height="40" style="fill: lightgray; stroke: black; stroke-width: 1px;" />
  <text x="5" y="20" font-family="Verdana" font-size="12" fill="black">m2-m_get_to(cook1, manTomatoDispenser)</text>
</g>
<g transform="translate(50,500)">
  <rect x="0" y="0" width="250" height="40" style="fill: lightgreen; stroke: black; stroke-width: 1px;" />
  <text x="5" y="20" font-family="Verdana" font-size="12" fill="black">a_move(cook1, manTomatoDispenser)</text>
</g>
<g transform="translate(50,550)">
  <rect x="0" y="0" width="2000" height="40" style="fill: lightgray; stroke: black; stroke-width: 1px;" />
  <text x="5" y="20" font-family="Verdana" font-size="12" fill="black">m2-m_chop(lettuce3)</text>
</g>
<g transform="translate(1050,600)">
  <rect x="0" y="0" width="1000" height="40" style="fill: lightgreen; stroke: black; stroke-width: 1px;" />
  <text x="5" y="20" font-family="Verdana" font-size="12" fill="black">a_chop(cook2, lettuce3, knife1)</text>
</g>
<g transform="translate(50,600)">
  <rect x="0" y="0" width="1000" height="40" style="fill: lightgray; stroke: black; stroke-width: 1px;" />
  <text x="5" y="20" font-family="Verdana" font-size="12" fill="black">m2-m_transport_to(lettuce3, counterTopLeftTop)</text>
</g>
<g transform="translate(800,650)">
  <rect x="0" y="0" width="250" height="40" style="fill: lightgreen; stroke: black; stroke-width: 1px;" />
  <text x="5" y="20" font-family="Verdana" font-size="12" fill="black">a_drop(cook2, lettuce3)</text>
</g>
<g transform="translate(50,650)">
  <rect x="0" y="0" width="500" height="40" style="fill: lightgray; stroke: black; stroke-width: 1px;" />
  <text x="5" y="20" font-family="Verdana" font-size="12" fill="black">m2-m_fetch(cook2, lettuce3)</text>
</g>
<g transform="translate(300,700)">
  <rect x="0" y="0" width="250" height="40" style="fill: lightgreen; stroke: black; stroke-width: 1px;" />
  <text x="5" y="20" font-family="Verdana" font-size="12" fill="black">a_pick_up(cook2, lettuce3)</text>
</g>
<g transform="translate(50,700)">
  <rect x="0" y="0" width="250" height="40" style="fill: lightgray; stroke: black; stroke-width: 1px;" />
  <text x="5" y="20" font-family="Verdana" font-size="12" fill="black">m2-m_get_to(cook2, manLettuceDispenser)</text>
</g>
<g transform="translate(50,750)">
  <rect x="0" y="0" width="250" height="40" style="fill: lightgreen; stroke: black; stroke-width: 1px;" />
  <text x="5" y="20" font-family="Verdana" font-size="12" fill="black">a_move(cook2, manLettuceDispenser)</text>
</g>
<g transform="translate(550,650)">
  <rect x="0" y="0" width="250" height="40" style="fill: lightgray; stroke: black; stroke-width: 1px;" />
  <text x="5" y="20" font-family="Verdana" font-size="12" fill="black">m2-m_get_to(cook2, manCounterTopLeftTop)</text>
</g>
<g transform="translate(550,700)">
  <rect x="0" y="0" width="250" height="40" style="fill: lightgreen; stroke: black; stroke-width: 1px;" />
  <text x="5" y="20" font-family="Verdana" font-size="12" fill="black">a_move(cook2, manCounterTopLeftTop)</text>
</g>
<g transform="translate(550,400)">
  <rect x="0" y="0" width="250" height="40" style="fill: lightgray; stroke: black; stroke-width: 1px;" />
  <text x="5" y="20" font-family="Verdana" font-size="12" fill="black">m2-m_get_to(cook1, manCounterTopLeftTop)</text>
</g>
<g transform="translate(550,450)">
  <rect x="0" y="0" width="250" height="40" style="fill: lightgreen; stroke: black; stroke-width: 1px;" />
  <text x="5" y="20" font-family="Verdana" font-size="12" fill="black">a_move(cook1, manCounterTopLeftTop)</text>
</g>
<g transform="translate(3800,200)">
  <rect x="0" y="0" width="250" height="40" style="fill: lightgray; stroke: black; stroke-width: 1px;" />
  <text x="5" y="20" font-family="Verdana" font-size="12" fill="black">m2-m_get_to(cook2, manCounterTopRightBottom)</text>
</g>
<g transform="translate(3800,250)">
  <rect x="0" y="0" width="250" height="40" style="fill: lightgreen; stroke: black; stroke-width: 1px;" />
  <text x="5" y="20" font-family="Verdana" font-size="12" fill="black">a_move(cook2, manCounterTopRightBottom)</text>
</g>
<g transform="translate(4300,200)">
  <rect x="0" y="0" width="500" height="40" style="fill: lightgray; stroke: black; stroke-width: 1px;" />
  <text x="5" y="20" font-family="Verdana" font-size="12" fill="black">m2-m_fetch(cook2, lettuce3)</text>
</g>
<g transform="translate(4550,250)">
  <rect x="0" y="0" width="250" height="40" style="fill: lightgreen; stroke: black; stroke-width: 1px;" />
  <text x="5" y="20" font-family="Verdana" font-size="12" fill="black">a_pick_up(cook2, lettuce3)</text>
</g>
<g transform="translate(4300,250)">
  <rect x="0" y="0" width="250" height="40" style="fill: lightgray; stroke: black; stroke-width: 1px;" />
  <text x="5" y="20" font-family="Verdana" font-size="12" fill="black">m2-m_get_to(cook2, manCounterTopLeftTop)</text>
</g>
<g transform="translate(4300,300)">
  <rect x="0" y="0" width="250" height="40" style="fill: lightgreen; stroke: black; stroke-width: 1px;" />
  <text x="5" y="20" font-family="Verdana" font-size="12" fill="black">a_move(cook2, manCounterTopLeftTop)</text>
</g>
<g transform="translate(4300,350)">
  <rect x="0" y="0" width="500" height="40" style="fill: lightgray; stroke: black; stroke-width: 1px;" />
  <text x="5" y="20" font-family="Verdana" font-size="12" fill="black">m2-m_fetch(cook1, tomato5)</text>
</g>
<g transform="translate(4550,400)">
  <rect x="0" y="0" width="250" height="40" style="fill: lightgreen; stroke: black; stroke-width: 1px;" />
  <text x="5" y="20" font-family="Verdana" font-size="12" fill="black">a_pick_up(cook1, tomato5)</text>
</g>
<g transform="translate(4300,400)">
  <rect x="0" y="0" width="250" height="40" style="fill: lightgray; stroke: black; stroke-width: 1px;" />
  <text x="5" y="20" font-family="Verdana" font-size="12" fill="black">m2-m_get_to(cook1, manCounterTopLeftTop)</text>
</g>
<g transform="translate(4300,450)">
  <rect x="0" y="0" width="250" height="40" style="fill: lightgreen; stroke: black; stroke-width: 1px;" />
  <text x="5" y="20" font-family="Verdana" font-size="12" fill="black">a_move(cook1, manCounterTopLeftTop)</text>
</g>
<g transform="translate(4800,200)">
  <rect x="0" y="0" width="250" height="40" style="fill: lightgray; stroke: black; stroke-width: 1px;" />
  <text x="5" y="20" font-family="Verdana" font-size="12" fill="black">m2-m_get_to(cook2, manCounterTopRightBottom)</text>
</g>
<g transform="translate(4800,250)">
  <rect x="0" y="0" width="250" height="40" style="fill: lightgreen; stroke: black; stroke-width: 1px;" />
  <text x="5" y="20" font-family="Verdana" font-size="12" fill="black">a_move(cook2, manCounterTopRightBottom)</text>
</g>
<g transform="translate(4800,300)">
  <rect x="0" y="0" width="250" height="40" style="fill: lightgray; stroke: black; stroke-width: 1px;" />
  <text x="5" y="20" font-family="Verdana" font-size="12" fill="black">m2-m_get_to(cook1, manCounterTopRightBottom)</text>
</g>
<g transform="translate(4800,350)">
  <rect x="0" y="0" width="250" height="40" style="fill: lightgreen; stroke: black; stroke-width: 1px;" />
  <text x="5" y="20" font-family="Verdana" font-size="12" fill="black">a_move(cook1, manCounterTopRightBottom)</text>
</g>
<g transform="translate(6050,150)">
  <rect x="0" y="0" width="500" height="40" style="fill: lightgray; stroke: black; stroke-width: 1px;" />
  <text x="5" y="20" font-family="Verdana" font-size="12" fill="black">m2-m_fetch(cook1, plate4)</text>
</g>
<g transform="translate(6300,200)">
  <rect x="0" y="0" width="250" height="40" style="fill: lightgreen; stroke: black; stroke-width: 1px;" />
  <text x="5" y="20" font-family="Verdana" font-size="12" fill="black">a_pick_up(cook1, plate4)</text>
</g>
<g transform="translate(6550,150)">
  <rect x="0" y="0" width="250" height="40" style="fill: lightgray; stroke: black; stroke-width: 1px;" />
  <text x="5" y="20" font-family="Verdana" font-size="12" fill="black">m2-m_get_to(cook1, manDeliver)</text>
</g>
<g transform="translate(6550,200)">
  <rect x="0" y="0" width="250" height="40" style="fill: lightgreen; stroke: black; stroke-width: 1px;" />
  <text x="5" y="20" font-family="Verdana" font-size="12" fill="black">a_move(cook1, manDeliver)</text>
</g>
<g transform="translate(6050,200)">
  <rect x="0" y="0" width="250" height="40" style="fill: lightgray; stroke: black; stroke-width: 1px;" />
  <text x="5" y="20" font-family="Verdana" font-size="12" fill="black">m2-m_get_to(cook1, manCounterTopRightBottom)</text>
</g>
<g transform="translate(6050,250)">
  <rect x="0" y="0" width="250" height="40" style="fill: lightgreen; stroke: black; stroke-width: 1px;" />
  <text x="5" y="20" font-family="Verdana" font-size="12" fill="black">a_move(cook1, manCounterTopRightBottom)</text>
</g>
</svg>
