<svg width="16050" height="3950" xmlns="http://www.w3.org/2000/svg">
<rect x="0" y="0" width="16050" height="3950" fill="white" />
<g transform="translate(50,50)">
  <rect x="0" y="0" width="16000" height="40" style="fill: lightgray; stroke: black; stroke-width: 1px;" />
  <text x="5" y="20" font-family="Verdana" font-size="12" fill="black">m1-order_po_lettuce_tomato_burger(client1)</text>
</g>
<g transform="translate(7600,100)">
  <rect x="0" y="0" width="2000" height="40" style="fill: lightgray; stroke: black; stroke-width: 1px;" />
  <text x="5" y="20" font-family="Verdana" font-size="12" fill="black">m1-m_arrange(bun5, plate5)</text>
</g>
<g transform="translate(50,100)">
  <rect x="0" y="0" width="7550" height="40" style="fill: lightgray; stroke: black; stroke-width: 1px;" />
  <text x="5" y="20" font-family="Verdana" font-size="12" fill="black">m2-m_prepare_tableware(plate5)</text>
</g>
<g transform="translate(50,150)">
  <rect x="0" y="0" width="7550" height="40" style="fill: lightgray; stroke: black; stroke-width: 1px;" />
  <text x="5" y="20" font-family="Verdana" font-size="12" fill="black">m2-m_transport_to(plate5, counterMiddle2)</text>
</g>
<g transform="translate(7400,200)">
  <rect x="0" y="0" width="200" height="40" style="fill: lightgreen; stroke: black; stroke-width: 1px;" />
  <text x="5" y="20" font-family="Verdana" font-size="12" fill="black">a_drop(cook2, plate5)</text>
</g>
<g transform="translate(50,200)">
  <rect x="0" y="0" width="6700" height="40" style="fill: lightgray; stroke: black; stroke-width: 1px;" />
  <text x="5" y="20" font-family="Verdana" font-size="12" fill="black">m2-m_fetch(cook2, plate5)</text>
</g>
<g transform="translate(6450,250)">
  <rect x="0" y="0" width="300" height="40" style="fill: lightgreen; stroke: black; stroke-width: 1px;" />
  <text x="5" y="20" font-family="Verdana" font-size="12" fill="black">a_pick_up(cook2, plate5)</text>
</g>
<g transform="translate(9100,150)">
  <rect x="0" y="0" width="500" height="40" style="fill: lightgreen; stroke: black; stroke-width: 1px;" />
  <text x="5" y="20" font-family="Verdana" font-size="12" fill="black">a_arrange(cook2, bun5, plate5)</text>
</g>
<g transform="translate(7600,150)">
  <rect x="0" y="0" width="750" height="40" style="fill: lightgray; stroke: black; stroke-width: 1px;" />
  <text x="5" y="20" font-family="Verdana" font-size="12" fill="black">m2-m_fetch(cook2, bun5)</text>
</g>
<g transform="translate(8050,200)">
  <rect x="0" y="0" width="300" height="40" style="fill: lightgreen; stroke: black; stroke-width: 1px;" />
  <text x="5" y="20" font-family="Verdana" font-size="12" fill="black">a_pick_up(cook2, bun5)</text>
</g>
<g transform="translate(9600,100)">
  <rect x="0" y="0" width="1950" height="40" style="fill: lightgray; stroke: black; stroke-width: 1px;" />
  <text x="5" y="20" font-family="Verdana" font-size="12" fill="black">m1-m_arrange(beef3, plate5)</text>
</g>
<g transform="translate(9600,150)">
  <rect x="0" y="0" width="5700" height="40" style="fill: lightgray; stroke: black; stroke-width: 1px;" />
  <text x="5" y="20" font-family="Verdana" font-size="12" fill="black">m1-m_arrange(tomato1, plate5)</text>
</g>
<g transform="translate(13850,100)">
  <rect x="0" y="0" width="1500" height="40" style="fill: lightgray; stroke: black; stroke-width: 1px;" />
  <text x="5" y="20" font-family="Verdana" font-size="12" fill="black">m1-m_arrange(lettuce1, plate5)</text>
</g>
<g transform="translate(14850,200)">
  <rect x="0" y="0" width="500" height="40" style="fill: lightgreen; stroke: black; stroke-width: 1px;" />
  <text x="5" y="20" font-family="Verdana" font-size="12" fill="black">a_arrange(cook1, lettuce1, plate5)</text>
</g>
<g transform="translate(14800,250)">
  <rect x="0" y="0" width="500" height="40" style="fill: lightgreen; stroke: black; stroke-width: 1px;" />
  <text x="5" y="20" font-family="Verdana" font-size="12" fill="black">a_arrange(cook2, tomato1, plate5)</text>
</g>
<g transform="translate(11050,200)">
  <rect x="0" y="0" width="500" height="40" style="fill: lightgreen; stroke: black; stroke-width: 1px;" />
  <text x="5" y="20" font-family="Verdana" font-size="12" fill="black">a_arrange(cook1, beef3, plate5)</text>
</g>
<g transform="translate(15350,100)">
  <rect x="0" y="0" width="700" height="40" style="fill: lightgray; stroke: black; stroke-width: 1px;" />
  <text x="5" y="20" font-family="Verdana" font-size="12" fill="black">m1-m_deliver(plate5, client1)</text>
</g>
<g transform="translate(15800,150)">
  <rect x="0" y="0" width="250" height="40" style="fill: lightgreen; stroke: black; stroke-width: 1px;" />
  <text x="5" y="20" font-family="Verdana" font-size="12" fill="black">a_give(cook1, client1, plate5)</text>
</g>
<g transform="translate(15350,150)">
  <rect x="0" y="0" width="350" height="40" style="fill: lightgray; stroke: black; stroke-width: 1px;" />
  <text x="5" y="20" font-family="Verdana" font-size="12" fill="black">m2-m_fetch(cook1, plate5)</text>
</g>
<g transform="translate(15400,200)">
  <rect x="0" y="0" width="300" height="40" style="fill: lightgreen; stroke: black; stroke-width: 1px;" />
  <text x="5" y="20" font-family="Verdana" font-size="12" fill="black">a_pick_up(cook1, plate5)</text>
</g>
<g transform="translate(50,250)">
  <rect x="0" y="0" width="150" height="40" style="fill: lightgray; stroke: black; stroke-width: 1px;" />
  <text x="5" y="20" font-family="Verdana" font-size="12" fill="black">m2-m_get_to(cook2, manPlateDispenser)</text>
</g>
<g transform="translate(50,300)">
  <rect x="0" y="0" width="150" height="40" style="fill: lightgreen; stroke: black; stroke-width: 1px;" />
  <text x="5" y="20" font-family="Verdana" font-size="12" fill="black">a_move(cook2, manPlateDispenser)</text>
</g>
<g transform="translate(50,350)">
  <rect x="0" y="0" width="6700" height="40" style="fill: lightgray; stroke: black; stroke-width: 1px;" />
  <text x="5" y="20" font-family="Verdana" font-size="12" fill="black">m2-m_fry(beef3)</text>
</g>
<g transform="translate(4900,400)">
  <rect x="0" y="0" width="1500" height="40" style="fill: lightgreen; stroke: black; stroke-width: 1px;" />
  <text x="5" y="20" font-family="Verdana" font-size="12" fill="black">a_fry(beef3, pan2)</text>
</g>
<g transform="translate(50,400)">
  <rect x="0" y="0" width="4850" height="40" style="fill: lightgray; stroke: black; stroke-width: 1px;" />
  <text x="5" y="20" font-family="Verdana" font-size="12" fill="black">m2-m_transport_to(beef3, taPan2)</text>
</g>
<g transform="translate(4700,450)">
  <rect x="0" y="0" width="200" height="40" style="fill: lightgreen; stroke: black; stroke-width: 1px;" />
  <text x="5" y="20" font-family="Verdana" font-size="12" fill="black">a_drop(cook1, beef3)</text>
</g>
<g transform="translate(50,450)">
  <rect x="0" y="0" width="3550" height="40" style="fill: lightgray; stroke: black; stroke-width: 1px;" />
  <text x="5" y="20" font-family="Verdana" font-size="12" fill="black">m2-m_fetch(cook1, beef3)</text>
</g>
<g transform="translate(3300,500)">
  <rect x="0" y="0" width="300" height="40" style="fill: lightgreen; stroke: black; stroke-width: 1px;" />
  <text x="5" y="20" font-family="Verdana" font-size="12" fill="black">a_pick_up(cook1, beef3)</text>
</g>
<g transform="translate(50,500)">
  <rect x="0" y="0" width="2350" height="40" style="fill: lightgray; stroke: black; stroke-width: 1px;" />
  <text x="5" y="20" font-family="Verdana" font-size="12" fill="black">m2-m_chop(tomato1)</text>
</g>
<g transform="translate(1850,550)">
  <rect x="0" y="0" width="550" height="40" style="fill: lightgreen; stroke: black; stroke-width: 1px;" />
  <text x="5" y="20" font-family="Verdana" font-size="12" fill="black">a_chop(cook1, tomato1, knife2)</text>
</g>
<g transform="translate(50,550)">
  <rect x="0" y="0" width="1800" height="40" style="fill: lightgray; stroke: black; stroke-width: 1px;" />
  <text x="5" y="20" font-family="Verdana" font-size="12" fill="black">m2-m_transport_to(tomato1, taKnife2)</text>
</g>
<g transform="translate(1650,600)">
  <rect x="0" y="0" width="200" height="40" style="fill: lightgreen; stroke: black; stroke-width: 1px;" />
  <text x="5" y="20" font-family="Verdana" font-size="12" fill="black">a_drop(cook1, tomato1)</text>
</g>
<g transform="translate(50,600)">
  <rect x="0" y="0" width="650" height="40" style="fill: lightgray; stroke: black; stroke-width: 1px;" />
  <text x="5" y="20" font-family="Verdana" font-size="12" fill="black">m2-m_fetch(cook1, tomato1)</text>
</g>
<g transform="translate(400,650)">
  <rect x="0" y="0" width="300" height="40" style="fill: lightgreen; stroke: black; stroke-width: 1px;" />
  <text x="5" y="20" font-family="Verdana" font-size="12" fill="black">a_pick_up(cook1, tomato1)</text>
</g>
<g transform="translate(9600,200)">
  <rect x="0" y="0" width="650" height="40" style="fill: lightgray; stroke: black; stroke-width: 1px;" />
  <text x="5" y="20" font-family="Verdana" font-size="12" fill="black">m2-m_fetch(cook2, tomato1)</text>
</g>
<g transform="translate(9950,250)">
  <rect x="0" y="0" width="300" height="40" style="fill: lightgreen; stroke: black; stroke-width: 1px;" />
  <text x="5" y="20" font-family="Verdana" font-size="12" fill="black">a_pick_up(cook2, tomato1)</text>
</g>
<g transform="translate(50,700)">
  <rect x="0" y="0" width="13800" height="40" style="fill: lightgray; stroke: black; stroke-width: 1px;" />
  <text x="5" y="20" font-family="Verdana" font-size="12" fill="black">m2-m_chop(lettuce1)</text>
</g>
<g transform="translate(13300,750)">
  <rect x="0" y="0" width="550" height="40" style="fill: lightgreen; stroke: black; stroke-width: 1px;" />
  <text x="5" y="20" font-family="Verdana" font-size="12" fill="black">a_chop(cook1, lettuce1, knife1)</text>
</g>
<g transform="translate(50,750)">
  <rect x="0" y="0" width="13250" height="40" style="fill: lightgray; stroke: black; stroke-width: 1px;" />
  <text x="5" y="20" font-family="Verdana" font-size="12" fill="black">m2-m_transport_to(lettuce1, taKnife1)</text>
</g>
<g transform="translate(13100,800)">
  <rect x="0" y="0" width="200" height="40" style="fill: lightgreen; stroke: black; stroke-width: 1px;" />
  <text x="5" y="20" font-family="Verdana" font-size="12" fill="black">a_drop(cook1, lettuce1)</text>
</g>
<g transform="translate(50,800)">
  <rect x="0" y="0" width="12100" height="40" style="fill: lightgray; stroke: black; stroke-width: 1px;" />
  <text x="5" y="20" font-family="Verdana" font-size="12" fill="black">m2-m_fetch(cook1, lettuce1)</text>
</g>
<g transform="translate(11850,850)">
  <rect x="0" y="0" width="300" height="40" style="fill: lightgreen; stroke: black; stroke-width: 1px;" />
  <text x="5" y="20" font-family="Verdana" font-size="12" fill="black">a_pick_up(cook1, lettuce1)</text>
</g>
<g transform="translate(13850,200)">
  <rect x="0" y="0" width="350" height="40" style="fill: lightgray; stroke: black; stroke-width: 1px;" />
  <text x="5" y="20" font-family="Verdana" font-size="12" fill="black">m2-m_fetch(cook1, lettuce1)</text>
</g>
<g transform="translate(13900,250)">
  <rect x="0" y="0" width="300" height="40" style="fill: lightgreen; stroke: black; stroke-width: 1px;" />
  <text x="5" y="20" font-family="Verdana" font-size="12" fill="black">a_pick_up(cook1, lettuce1)</text>
</g>
<g transform="translate(50,850)">
  <rect x="0" y="0" width="3250" height="40" style="fill: lightgray; stroke: black; stroke-width: 1px;" />
  <text x="5" y="20" font-family="Verdana" font-size="12" fill="black">m2-m_get_to(cook1, manBeefDispenser)</text>
</g>
<g transform="translate(2400,900)">
  <rect x="0" y="0" width="900" height="40" style="fill: lightgreen; stroke: black; stroke-width: 1px;" />
  <text x="5" y="20" font-family="Verdana" font-size="12" fill="black">a_move(cook1, manBeefDispenser)</text>
</g>
<g transform="translate(50,650)">
  <rect x="0" y="0" width="350" height="40" style="fill: lightgray; stroke: black; stroke-width: 1px;" />
  <text x="5" y="20" font-family="Verdana" font-size="12" fill="black">m2-m_get_to(cook1, manTomatoDispenser)</text>
</g>
<g transform="translate(200,900)">
  <rect x="0" y="0" width="200" height="40" style="fill: lightgreen; stroke: black; stroke-width: 1px;" />
  <text x="5" y="20" font-family="Verdana" font-size="12" fill="black">a_move(cook1, manTomatoDispenser)</text>
</g>
<g transform="translate(50,950)">
  <rect x="0" y="0" width="11800" height="40" style="fill: lightgray; stroke: black; stroke-width: 1px;" />
  <text x="5" y="20" font-family="Verdana" font-size="12" fill="black">m2-m_get_to(cook1, manLettuceDispenser)</text>
</g>
<g transform="translate(11550,1000)">
  <rect x="0" y="0" width="300" height="40" style="fill: lightgreen; stroke: black; stroke-width: 1px;" />
  <text x="5" y="20" font-family="Verdana" font-size="12" fill="black">a_move(cook1, manLettuceDispenser)</text>
</g>
<g transform="translate(3600,450)">
  <rect x="0" y="0" width="1100" height="40" style="fill: lightgray; stroke: black; stroke-width: 1px;" />
  <text x="5" y="20" font-family="Verdana" font-size="12" fill="black">m2-m_get_to(cook1, manPan2)</text>
</g>
<g transform="translate(3600,500)">
  <rect x="0" y="0" width="1100" height="40" style="fill: lightgreen; stroke: black; stroke-width: 1px;" />
  <text x="5" y="20" font-family="Verdana" font-size="12" fill="black">a_move(cook1, manPan2)</text>
</g>
<g transform="translate(9600,250)">
  <rect x="0" y="0" width="350" height="40" style="fill: lightgray; stroke: black; stroke-width: 1px;" />
  <text x="5" y="20" font-family="Verdana" font-size="12" fill="black">m2-m_get_to(cook2, manKnife2)</text>
</g>
<g transform="translate(9700,300)">
  <rect x="0" y="0" width="250" height="40" style="fill: lightgreen; stroke: black; stroke-width: 1px;" />
  <text x="5" y="20" font-family="Verdana" font-size="12" fill="black">a_move(cook2, manKnife2)</text>
</g>
<g transform="translate(6400,400)">
  <rect x="0" y="0" width="350" height="40" style="fill: lightgray; stroke: black; stroke-width: 1px;" />
  <text x="5" y="20" font-family="Verdana" font-size="12" fill="black">m2-m_fetch(cook1, beef3)</text>
</g>
<g transform="translate(6450,450)">
  <rect x="0" y="0" width="300" height="40" style="fill: lightgreen; stroke: black; stroke-width: 1px;" />
  <text x="5" y="20" font-family="Verdana" font-size="12" fill="black">a_pick_up(cook1, beef3)</text>
</g>
<g transform="translate(6750,200)">
  <rect x="0" y="0" width="650" height="40" style="fill: lightgray; stroke: black; stroke-width: 1px;" />
  <text x="5" y="20" font-family="Verdana" font-size="12" fill="black">m2-m_get_to(cook2, manCounterMiddle2Top)</text>
</g>
<g transform="translate(6750,250)">
  <rect x="0" y="0" width="650" height="40" style="fill: lightgreen; stroke: black; stroke-width: 1px;" />
  <text x="5" y="20" font-family="Verdana" font-size="12" fill="black">a_move(cook2, manCounterMiddle2Top)</text>
</g>
<g transform="translate(7600,200)">
  <rect x="0" y="0" width="450" height="40" style="fill: lightgray; stroke: black; stroke-width: 1px;" />
  <text x="5" y="20" font-family="Verdana" font-size="12" fill="black">m2-m_get_to(cook2, manBurgerBunDispenser)</text>
</g>
<g transform="translate(7600,250)">
  <rect x="0" y="0" width="450" height="40" style="fill: lightgreen; stroke: black; stroke-width: 1px;" />
  <text x="5" y="20" font-family="Verdana" font-size="12" fill="black">a_move(cook2, manBurgerBunDispenser)</text>
</g>
<g transform="translate(8350,150)">
  <rect x="0" y="0" width="750" height="40" style="fill: lightgray; stroke: black; stroke-width: 1px;" />
  <text x="5" y="20" font-family="Verdana" font-size="12" fill="black">m2-m_get_to(cook2, manCounterMiddle2Bottom)</text>
</g>
<g transform="translate(8350,200)">
  <rect x="0" y="0" width="750" height="40" style="fill: lightgreen; stroke: black; stroke-width: 1px;" />
  <text x="5" y="20" font-family="Verdana" font-size="12" fill="black">a_move(cook2, manCounterMiddle2Bottom)</text>
</g>
<g transform="translate(9600,300)">
  <rect x="0" y="0" width="50" height="40" style="fill: lightgray; stroke: black; stroke-width: 1px;" />
  <text x="5" y="20" font-family="Verdana" font-size="12" fill="black">m1-m_fetch(cook1, beef3)</text>
</g>
<g transform="translate(700,600)">
  <rect x="0" y="0" width="950" height="40" style="fill: lightgray; stroke: black; stroke-width: 1px;" />
  <text x="5" y="20" font-family="Verdana" font-size="12" fill="black">m2-m_get_to(cook1, manKnife2)</text>
</g>
<g transform="translate(700,650)">
  <rect x="0" y="0" width="950" height="40" style="fill: lightgreen; stroke: black; stroke-width: 1px;" />
  <text x="5" y="20" font-family="Verdana" font-size="12" fill="black">a_move(cook1, manKnife2)</text>
</g>
<g transform="translate(15700,150)">
  <rect x="0" y="0" width="100" height="40" style="fill: lightgray; stroke: black; stroke-width: 1px;" />
  <text x="5" y="20" font-family="Verdana" font-size="12" fill="black">m2-m_get_to(cook1, manDeliver)</text>
</g>
<g transform="translate(15700,200)">
  <rect x="0" y="0" width="100" height="40" style="fill: lightgreen; stroke: black; stroke-width: 1px;" />
  <text x="5" y="20" font-family="Verdana" font-size="12" fill="black">a_move(cook1, manDeliver)</text>
</g>
<g transform="translate(6400,450)">
  <rect x="0" y="0" width="50" height="40" style="fill: lightgray; stroke: black; stroke-width: 1px;" />
  <text x="5" y="20" font-family="Verdana" font-size="12" fill="black">m1-m_get_to(cook1, manPan2)</text>
</g>
<g transform="translate(9650,350)">
  <rect x="0" y="0" width="1400" height="40" style="fill: lightgray; stroke: black; stroke-width: 1px;" />
  <text x="5" y="20" font-family="Verdana" font-size="12" fill="black">m2-m_get_to(cook1, manCounterMiddle2Top)</text>
</g>
<g transform="translate(10300,400)">
  <rect x="0" y="0" width="750" height="40" style="fill: lightgreen; stroke: black; stroke-width: 1px;" />
  <text x="5" y="20" font-family="Verdana" font-size="12" fill="black">a_move(cook1, manCounterMiddle2Top)</text>
</g>
<g transform="translate(10250,300)">
  <rect x="0" y="0" width="4550" height="40" style="fill: lightgray; stroke: black; stroke-width: 1px;" />
  <text x="5" y="20" font-family="Verdana" font-size="12" fill="black">m2-m_get_to(cook2, manCounterMiddle2Top)</text>
</g>
<g transform="translate(14250,350)">
  <rect x="0" y="0" width="550" height="40" style="fill: lightgreen; stroke: black; stroke-width: 1px;" />
  <text x="5" y="20" font-family="Verdana" font-size="12" fill="black">a_move(cook2, manCounterMiddle2Top)</text>
</g>
<g transform="translate(12150,800)">
  <rect x="0" y="0" width="950" height="40" style="fill: lightgray; stroke: black; stroke-width: 1px;" />
  <text x="5" y="20" font-family="Verdana" font-size="12" fill="black">m2-m_get_to(cook1, manKnife1)</text>
</g>
<g transform="translate(12150,850)">
  <rect x="0" y="0" width="950" height="40" style="fill: lightgreen; stroke: black; stroke-width: 1px;" />
  <text x="5" y="20" font-family="Verdana" font-size="12" fill="black">a_move(cook1, manKnife1)</text>
</g>
<g transform="translate(14200,200)">
  <rect x="0" y="0" width="650" height="40" style="fill: lightgray; stroke: black; stroke-width: 1px;" />
  <text x="5" y="20" font-family="Verdana" font-size="12" fill="black">m2-m_get_to(cook1, manCounterMiddle2Top)</text>
</g>
<g transform="translate(14200,400)">
  <rect x="0" y="0" width="650" height="40" style="fill: lightgreen; stroke: black; stroke-width: 1px;" />
  <text x="5" y="20" font-family="Verdana" font-size="12" fill="black">a_move(cook1, manCounterMiddle2Top)</text>
</g>
<g transform="translate(13850,250)">
  <rect x="0" y="0" width="50" height="40" style="fill: lightgray; stroke: black; stroke-width: 1px;" />
  <text x="5" y="20" font-family="Verdana" font-size="12" fill="black">m1-m_get_to(cook1, manKnife1)</text>
</g>
<g transform="translate(15350,200)">
  <rect x="0" y="0" width="50" height="40" style="fill: lightgray; stroke: black; stroke-width: 1px;" />
  <text x="5" y="20" font-family="Verdana" font-size="12" fill="black">m1-m_get_to(cook1, manCounterMiddle2Top)</text>
</g>
</svg>
